<svg width="70" height="526" viewBox="0 0 70 526" fill="none" xmlns="http://www.w3.org/2000/svg">
<path opacity="0.05" d="M0 0H70V526H0V0Z" fill="#381DDB"/>
<g opacity="0.3" clip-path="url(#clip0_191_340)">
<path opacity="0.3" fill-rule="evenodd" clip-rule="evenodd" d="M2.97354 49.8044L5.5637 57.7771H13.9471L7.16523 62.7044L9.75539 70.678L2.97354 65.7506L-3.80831 70.678L-1.21815 62.7044L-8 57.7771H0.383387L2.97354 49.8044Z" stroke="#222222" stroke-width="2" stroke-linecap="round" stroke-linejoin="round"/>
<g opacity="0.3">
<path d="M66.9738 139.37C67.9934 139.37 68.82 138.544 68.82 137.524C68.82 136.505 67.9934 135.678 66.9738 135.678C65.9542 135.678 65.1277 136.505 65.1277 137.524C65.1277 138.544 65.9542 139.37 66.9738 139.37Z" fill="#222222"/>
<path d="M61.4355 139.37C62.4551 139.37 63.2816 138.544 63.2816 137.524C63.2816 136.505 62.4551 135.678 61.4355 135.678C60.4159 135.678 59.5893 136.505 59.5893 137.524C59.5893 138.544 60.4159 139.37 61.4355 139.37Z" fill="#222222"/>
<path d="M55.8969 139.37C56.9165 139.37 57.7431 138.544 57.7431 137.524C57.7431 136.505 56.9165 135.678 55.8969 135.678C54.8773 135.678 54.0508 136.505 54.0508 137.524C54.0508 138.544 54.8773 139.37 55.8969 139.37Z" fill="#222222"/>
</g>
<rect opacity="0.3" x="25.1279" y="204.37" width="14.7692" height="14.7692" rx="7.38461" stroke="#222222" stroke-width="2"/>
<g opacity="0.3">
<path d="M18.0508 299.985C19.0704 299.985 19.8969 299.159 19.8969 298.139C19.8969 297.12 19.0704 296.293 18.0508 296.293C17.0312 296.293 16.2046 297.12 16.2046 298.139C16.2046 299.159 17.0312 299.985 18.0508 299.985Z" fill="#222222"/>
<path d="M6.97382 299.985C7.99343 299.985 8.81998 299.159 8.81998 298.139C8.81998 297.12 7.99343 296.293 6.97382 296.293C5.95422 296.293 5.12767 297.12 5.12767 298.139C5.12767 299.159 5.95422 299.985 6.97382 299.985Z" fill="#222222"/>
</g>
</g>
<defs>
<clipPath id="clip0_191_340">
<rect width="70" height="250" fill="white" transform="translate(0 49.8044)"/>
</clipPath>
</defs>
</svg>
